<?xml version="1.0" encoding="utf-8"?>
<!-- Generator: Adobe Illustrator 25.0.1, SVG Export Plug-In . SVG Version: 6.00 Build 0)  -->
<svg version="1.0" id="katman_1" xmlns="http://www.w3.org/2000/svg" xmlns:xlink="http://www.w3.org/1999/xlink" x="0px" y="0px"
	 viewBox="0 0 422 324.8" style="enable-background:new 0 0 422 324.8;" xml:space="preserve">
<style type="text/css">
	.st0{fill:#231F20;}
</style>
<g>
	<path class="st0" d="M275.4,210.5h31.8v-76.3l-35.8-35.8l-22.5,22.5l26.5,26.5V210.5L275.4,210.5z M307.3,226.5H261h-64.6L170,200
		l11.2-11.2l21.9,21.9h45l-44.4-44.4l11.3-11.3l44.4,44.4v-45l-21.8-21.8l11.2-11.2l-55.1-55.3h-54.3l0,0H83l31.7,31.7v0.1h0.2h65.6
		l23.2,23.2l-34,34l-23.2-23.2v-18h-31.8v31.2l55,55l-22.4,22.4l35.8,35.8h54.3H339l0,0L307.3,226.5L307.3,226.5z"/>
</g>
</svg>
